PathFileType	4	(X/Y/Z)	C:\Users\Basilio\Documents\Thesis Gigler\squatting_fais\c3dfiles\047\SLS_pre_back4\markers_experimental.trc
DataRate	CameraRate	NumFrames	NumMarkers	Units	OrigDataRate	OrigDataStartFrame	OrigNumFrames
200.000000	200.000000	4	61	mm	200.000000	475	1267
Frame#	Time	FHD			LBHD			RBHD			C7			T10			CLAV			LSHO			LUUPA			LMUPA			LDUPA			LLEP			LMEP			LRAD			LUL			LRFIN			RSHO			RUPA1			RMUPA			RDUPA			RLEP			RMEP			RUL			RUFIN			LASI			RASI			USACR			LSACR			RSACR			LTHI1			LTHI2			LTHI3			LTHI4			LLFC			LMFC			LTIB1			LTIB2			LTIB3			LTIB4			LLMAL			LMMAL			LMT1			LMT2			LMT5			RTHI			RTHI2			RTHI3			RTHI4			RLFC			RMFC			RTIB1			RTIB2			RTIB3			RTIB4			RLMAL			RMMAL			RHEE			RMT1			RMT2			RMT5			RRAD			*60			
		X1	Y1	Z1	X2	Y2	Z2	X3	Y3	Z3	X4	Y4	Z4	X5	Y5	Z5	X6	Y6	Z6	X7	Y7	Z7	X8	Y8	Z8	X9	Y9	Z9	X10	Y10	Z10	X11	Y11	Z11	X12	Y12	Z12	X13	Y13	Z13	X14	Y14	Z14	X15	Y15	Z15	X16	Y16	Z16	X17	Y17	Z17	X18	Y18	Z18	X19	Y19	Z19	X20	Y20	Z20	X21	Y21	Z21	X22	Y22	Z22	X23	Y23	Z23	X24	Y24	Z24	X25	Y25	Z25	X26	Y26	Z26	X27	Y27	Z27	X28	Y28	Z28	X29	Y29	Z29	X30	Y30	Z30	X31	Y31	Z31	X32	Y32	Z32	X33	Y33	Z33	X34	Y34	Z34	X35	Y35	Z35	X36	Y36	Z36	X37	Y37	Z37	X38	Y38	Z38	X39	Y39	Z39	X40	Y40	Z40	X41	Y41	Z41	X42	Y42	Z42	X43	Y43	Z43	X44	Y44	Z44	X45	Y45	Z45	X46	Y46	Z46	X47	Y47	Z47	X48	Y48	Z48	X49	Y49	Z49	X50	Y50	Z50	X51	Y51	Z51	X52	Y52	Z52	X53	Y53	Z53	X54	Y54	Z54	X55	Y55	Z55	X56	Y56	Z56	X57	Y57	Z57	X58	Y58	Z58	X59	Y59	Z59	X60	Y60	Z60	X61	Y61	Z61	

476	2.375	-55.94288253784181	1627.122314453125	-1114.301025390625	-235.4764099121094	1603.294311523438	-1139.3994140625	-211.5350799560547	1606.069702148438	-992.551208496094	-276.3922424316407	1439.607421875	-1063.060913085938	-377.4680480957032	1154.393798828125	-1023.778503417969	-141.7172088623047	1352.105346679688	-1090.941162109375	-213.3007202148438	1384.2158203125	-1239.883056640625	-164.4206085205078	1237.553100585938	-1345.844360351563	-117.7886581420899	1259.109130859375	-1344.496826171875	-104.9518051147461	1203.039916992188	-1361.406127929688	-33.47148895263673	1184.426879882813	-1368.250366210938	-50.11456680297853	1129.783203125	-1294.087524414063	130.4364013671875	1283.439331054688	-1194.38525390625	163.166015625	1215.578857421875	-1190.974731445313	221.6205596923829	1285.812866210938	-1191.291137695313	-157.9400787353516	1399.822631835938	-933.6768188476565	-69.46752166748048	1257.950805664063	-834.2155761718752	-30.54536247253419	1274.275512695313	-858.1872558593752	-10.72573471069336	1219.937255859375	-841.3295898437502	59.53937911987306	1199.320678710938	-863.038024902344	21.97055816650391	1135.3466796875	-913.0281982421877	215.1263275146485	1218.093627929688	-1075.603393554688	201.0727539062501	1305.409301757813	-1104.5888671875	-276.6970214843751	891.236267089844	-1106.0810546875	-266.1274108886719	914.3002929687502	-880.728698730469	-427.791229248047	1024.019653320313	-1002.096557617188	-443.1611633300782	993.9392089843752	-1027.609008789063	-438.3856506347657	997.6340942382815	-969.4289550781252	-329.0164489746094	757.7255859375001	-1185.620971679688	-264.3403015136719	704.1207885742189	-1190.346313476563	-221.5291137695313	726.0483398437501	-1179.338500976563	-265.9171142578126	642.8060913085939	-1191.061645507813	-214.6847839355469	484.8283081054689	-1158.641845703125	-171.262680053711	488.2602844238282	-1040.693603515625	-217.8777313232422	317.4565124511719	-1045.80810546875	-240.3856506347657	269.1020202636719	-1114.52197265625	-226.6800689697266	264.1199951171876	-1068.733642578125	-266.1744384765626	202.1944885253907	-1029.414672851563	-346.7427368164063	121.8805541992188	-1065.446533203125	-319.5465393066407	143.9586029052735	-980.6692504882815	-209.8377075195313	64.59799194335939	-993.3641357421877	-210.5419311523438	59.87266159057619	-1038.377807617188	-259.2865600585938	47.21529388427735	-1081.600708007813	-345.0806884765626	752.6397094726564	-773.845886230469	-301.2171936035157	702.5347900390626	-766.1209716796876	-271.5440063476563	704.3200073242189	-778.308044433594	-320.2245483398438	621.1895751953126	-755.7717895507814	-308.7442321777344	488.7100219726564	-763.6981201171876	-306.6698608398438	454.4771728515626	-890.780456542969	-400.7845458984376	406.7269592285157	-763.4862670898439	-493.837615966797	455.8245239257814	-731.0982055664064	-483.026092529297	410.1047668457032	-736.2098388671876	-529.5025634765626	383.4696044921876	-762.6967773437501	-690.2933959960939	416.535125732422	-732.3356323242189	-670.7499389648439	375.4121093750001	-813.3458251953127	-716.0916137695314	462.0760498046876	-795.636901855469	-744.8809814453126	256.2236938476563	-786.4360351562502	-745.4834594726564	255.7610626220704	-739.1168823242189	-776.1336669921877	312.2246704101563	-696.4704589843751	nan	nan	nan	nan	nan	nan	
477	2.38	-55.28260803222658	1625.1396484375	-1114.558471679688	-234.5523071289063	1601.66943359375	-1139.613037109375	-210.8297882080079	1604.2685546875	-992.6889648437502	-275.8679504394532	1438.1669921875	-1063.197631835938	-377.2314453125001	1153.30029296875	-1023.736938476563	-141.5088348388672	1350.532592773438	-1091.021362304688	-213.2044372558594	1382.667358398438	-1240.12109375	-164.2676544189453	1235.868286132813	-1346.060302734375	-117.6106414794922	1257.489013671875	-1344.46630859375	-104.7726440429688	1201.234741210938	-1361.55029296875	-33.25189971923829	1182.65087890625	-1368.574829101563	-50.00807952880861	1128.051513671875	-1294.334106445313	131.0202941894532	1281.2333984375	-1194.965942382813	163.3937377929688	1213.443115234375	-1191.210571289063	221.8521423339844	1283.719604492188	-1191.553344726563	-156.9349822998047	1398.292602539063	-934.190612792969	-69.09445953369142	1256.001098632813	-834.6333618164065	-30.21288681030274	1272.60986328125	-858.205993652344	-10.41751480102539	1218.218627929688	-841.3481445312502	59.9729461669922	1197.349731445313	-863.1065063476565	22.56859779357911	1133.437622070313	-913.536315917969	215.539535522461	1216.35400390625	-1075.971923828125	201.3588104248047	1303.242553710938	-1104.908813476563	-277.7205505371094	890.7745361328127	-1105.711059570313	-266.4891662597657	912.839294433594	-880.3482666015627	-427.8600158691407	1022.952514648438	-1001.835144042969	-443.9158630371095	993.3013916015627	-1027.355834960938	-437.7215881347657	996.9630126953127	-969.3023681640627	-329.1457214355469	757.0488891601564	-1185.522216796875	-264.3490905761719	703.5577392578126	-1190.17431640625	-221.3541564941407	725.4652099609376	-1179.376708984375	-265.5522155761719	642.3882446289064	-1191.065307617188	-213.7901763916016	484.407928466797	-1158.887451171875	-170.6111602783203	487.8912963867189	-1041.048828125	-217.4186401367188	317.0617980957032	-1045.976928710938	-239.7755126953126	268.6410522460938	-1114.757568359375	-226.5236358642579	264.1620178222657	-1068.7998046875	-265.9944152832032	201.9728393554688	-1029.546020507813	-346.6748352050782	121.8749237060547	-1065.549194335938	-319.4613342285157	144.0136413574219	-980.6811523437502	-209.8589172363282	64.5892791748047	-993.4075927734377	-210.5805053710938	59.86719894409181	-1038.485473632813	-259.2570190429688	47.15246963500977	-1081.703125	-345.5724792480469	751.4494628906251	-773.7808837890627	-301.7928466796876	701.5027465820314	-765.7957153320314	-271.9060668945313	703.1444702148439	-778.158386230469	-321.0804748535157	619.9215087890626	-755.2203979492189	-309.3674621582032	487.615203857422	-763.1749267578126	-307.6551513671876	453.3291625976564	-890.4185791015627	-401.6227416992189	405.4140625000001	-763.1442871093751	-494.7813415527345	454.9893493652345	-730.6162109375001	-483.9477844238282	409.2385559082032	-735.3857421875001	-530.1386718750001	382.6293945312501	-762.5095214843751	-690.9888916015626	415.9872131347657	-732.0979614257814	-671.5521850585939	374.9792785644532	-813.0000000000002	-716.9950561523439	461.9073181152345	-795.2635498046877	-745.6264038085939	256.0050659179688	-786.881042480469	-746.6090087890626	255.3412780761719	-739.0319824218751	-777.0998535156252	311.9390869140626	-696.0292358398439	nan	nan	nan	nan	nan	nan	
478	2.385	-54.58773803710939	1623.078735351563	-1114.787109375	-233.6365356445313	1599.936279296875	-1140.0693359375	-210.2085876464844	1602.555297851563	-993.0327148437502	-275.2772216796876	1436.72265625	-1063.365478515625	-377.3444213867188	1152.036499023438	-1023.702209472656	-140.8869323730469	1348.781616210938	-1091.440307617188	-212.0520782470704	1380.913330078125	-1240.465942382813	-163.8225250244141	1234.1865234375	-1346.187133789063	-116.8998413085938	1255.659301757813	-1344.973754882813	-104.4579010009766	1199.465698242188	-1361.627807617188	-32.94515228271485	1180.733520507813	-1368.869140625	-49.52043533325197	1126.337280273438	-1294.760864257813	131.0445556640625	1279.357177734375	-1194.702514648438	163.7145385742188	1211.368530273438	-1191.519165039063	222.3313598632813	1281.611450195313	-1191.857299804688	-156.4111938476563	1396.504760742188	-934.2556152343752	-68.2818069458008	1254.599731445313	-834.6116943359377	-29.09723472595216	1270.848754882813	-858.5715332031252	-9.942206382751467	1216.517578125	-841.5441894531252	60.59719848632814	1195.748168945313	-863.585388183594	23.12824249267578	1131.604125976563	-913.9045410156252	215.8066406250001	1214.135498046875	-1076.036987304688	201.8406829833985	1301.321166992188	-1105.272827148438	-277.9175109863282	889.0032958984377	-1105.524169921875	-266.7805480957032	911.4313964843752	-880.2376098632815	-427.991668701172	1021.699584960938	-1001.555541992188	-444.0620727539064	992.2837524414065	-1027.228149414063	-438.0036621093751	995.534362792969	-969.0440063476565	-329.5255737304688	756.1146240234376	-1185.245849609375	-264.3048095703126	702.7940673828126	-1190.157470703125	-221.2611846923829	724.9677124023439	-1179.478515625	-265.4143981933594	641.7267456054689	-1190.96044921875	-212.9512481689454	483.935516357422	-1158.946655273438	-169.989990234375	487.3242492675782	-1041.253540039063	-216.8873901367188	316.7613220214844	-1046.221069335938	-239.2406768798829	268.2192687988282	-1114.803344726563	-225.9171905517579	263.8506164550782	-1068.767333984375	-265.7603149414063	201.7286529541016	-1029.557250976563	-346.6062011718751	121.8419265747071	-1065.625610351563	-319.4160461425782	144.0287170410157	-980.7377929687502	-209.9301300048829	64.5671844482422	-993.4552001953127	-209.0491485595704	60.19273376464845	-1038.299072265625	-259.3072204589844	47.12533187866212	-1081.697265625	-346.3862609863282	750.4187622070314	-773.2226562500002	-302.1703186035157	700.1417846679689	-765.8133544921876	-272.5051269531251	701.8328247070314	-778.0693359375002	-321.7194213867188	618.8864746093751	-755.0798950195314	-310.1574707031251	486.3705444335939	-762.8422241210939	-308.3981018066407	452.0639648437501	-890.1392822265627	-402.4897460937501	404.4075927734376	-762.8350830078126	-495.5325012207032	453.864959716797	-730.3260498046876	-485.1531982421876	408.4597778320314	-734.6601562500001	-531.1721801757814	381.6799621582032	-762.1644287109376	-691.7516479492189	415.4218750000001	-731.7571411132814	-672.4169921875001	374.2897949218751	-812.6639404296877	-717.8168334960939	461.0972290039064	-794.726013183594	-747.1976318359376	254.6379394531251	-786.0756835937502	-747.5413208007814	254.7055816650391	-738.8975830078126	-778.011413574219	311.3175659179688	-695.5558471679689	nan	nan	nan	nan	nan	nan	
479	2.39	-53.42040252685548	1622.01123046875	-1115.211181640625	-232.8687896728516	1598.172973632813	-1140.26806640625	-209.4148101806641	1601.036254882813	-993.2338867187502	-274.2575988769532	1435.110595703125	-1063.621337890625	-377.2845458984376	1150.82861328125	-1023.624145507813	-140.0980834960938	1347.099487304688	-1091.648559570313	-211.3573760986329	1379.2958984375	-1240.669921875	-163.3962860107422	1232.472534179688	-1346.4189453125	-116.6417083740235	1254.037963867188	-1345.16943359375	-104.2683792114258	1197.716430664063	-1361.97509765625	-32.93579864501954	1178.917236328125	-1368.97509765625	-49.30864334106447	1124.303588867188	-1294.89501953125	131.5860900878907	1277.241943359375	-1195.267211914063	164.0755157470703	1209.26806640625	-1191.810424804688	222.7562561035157	1279.495971679688	-1192.18212890625	-155.9717254638672	1394.999877929688	-934.5894165039065	-67.73321533203126	1252.883056640625	-834.9348754882815	-28.64942932128907	1269.077392578125	-858.8352661132815	-9.415660858154299	1214.862548828125	-841.7803344726565	60.96335220336915	1193.838745117188	-863.695983886719	23.37800598144532	1130.057373046875	-913.9924926757815	216.4069061279297	1212.30908203125	-1076.768188476563	202.4136199951172	1299.2236328125	-1105.591918945313	-277.9056396484376	887.4659423828127	-1105.513793945313	-267.0765991210938	910.0310668945315	-880.2386474609377	-428.2168884277345	1020.887268066406	-1001.230529785156	-444.3591918945314	991.2434082031252	-1026.921752929688	-438.365447998047	994.6794433593752	-968.7556152343752	-329.6324157714844	755.0932617187501	-1185.141723632813	-264.2847900390626	702.0707397460939	-1190.096313476563	-221.6450958251954	724.4218750000001	-1179.131591796875	-265.1036376953126	641.0859375000001	-1190.944458007813	-212.1306304931641	483.4778747558595	-1159.03466796875	-169.3342437744141	487.0842590332032	-1041.6435546875	-216.1228790283204	316.5948791503907	-1046.43408203125	-241.3204956054688	267.2320556640626	-1112.9755859375	-225.6924133300782	263.5778198242188	-1068.839721679688	-265.4554443359376	201.6187438964844	-1029.73291015625	-346.5084838867188	121.795166015625	-1065.6416015625	-319.2944335937501	144.0966033935547	-980.8511962890627	-209.9403228759766	64.56609344482423	-993.4412841796877	-209.0835876464844	60.12325286865236	-1038.336669921875	-259.3131103515626	47.02685165405274	-1081.701171875	-346.8057556152344	749.0771484375001	-773.2423095703127	-302.8796997070313	698.9286499023439	-765.4296264648439	-273.0148010253907	700.5910034179689	-777.5845336914065	-322.2342224121094	617.4071655273439	-754.9125366210939	-310.8916931152344	485.4667358398439	-762.6434326171876	-309.1921386718751	450.8844604492189	-889.8682861328127	-403.5100708007814	403.2285766601564	-762.1027832031251	-496.2966613769532	452.9576721191407	-729.9844360351564	-485.849334716797	407.3726196289064	-734.5255126953126	-532.1576538085939	380.8970336914063	-761.6429443359376	-692.7952270507814	414.8060607910157	-731.2858886718751	-673.2485961914064	373.6990661621094	-812.273376464844	-718.6800537109376	460.833221435547	-794.351501464844	-748.6029663085939	254.0584564208985	-784.742126464844	-748.6872558593751	254.3250885009766	-738.3574218750001	-778.9288330078127	310.8476257324219	-695.0504150390626	nan	nan	nan	nan	nan	nan	
